<svg width="25" height="25" viewBox="0 0 25 25" fill="none" xmlns="http://www.w3.org/2000/svg">
<path d="M6.24375 12.5C6.24375 15.9513 9.05125 18.7588 12.5025 18.7588C15.9537 18.7588 18.7612 15.9513 18.7612 12.5C18.7612 9.04875 15.9537 6.24125 12.5025 6.24125C9.05125 6.24125 6.24375 9.04875 6.24375 12.5ZM11.25 21.25H13.75V25H11.25V21.25ZM11.25 0H13.75V3.75H11.25V0ZM0 11.25H3.75V13.75H0V11.25ZM21.25 11.25H25V13.75H21.25V11.25ZM4.54625 22.2225L2.77875 20.455L5.43 17.8038L7.1975 19.5713L4.54625 22.2225ZM17.8025 5.43L20.455 2.7775L22.2225 4.545L19.57 7.1975L17.8025 5.43ZM5.43 7.19875L2.77875 4.54625L4.5475 2.77875L7.1975 5.43125L5.43 7.19875ZM22.2225 20.455L20.455 22.2225L17.8025 19.57L19.57 17.8025L22.2225 20.455Z" fill="white"/>
</svg>
