<svg width="31" height="27" viewBox="0 0 31 27" fill="none" xmlns="http://www.w3.org/2000/svg">
<path d="M15.5 7.66669V14.9584H22.7917V12.0417H18.4167V7.66669H15.5Z" fill="white"/>
<path d="M29.0509 8.39148C28.3931 6.83113 27.4381 5.41358 26.2392 4.21773C24.4244 2.40292 22.1176 1.15975 19.6038 0.641894C17.8591 0.286768 16.0607 0.286768 14.3159 0.641894C11.7998 1.15644 9.49098 2.40064 7.67758 4.21919C6.48158 5.41631 5.52702 6.83231 4.86591 8.39002C4.18211 10.0067 3.83096 11.7446 3.83341 13.5L3.83487 13.5365H0.916748L5.29175 19.3334L9.66675 13.5365H6.75154L6.75008 13.5C6.74588 11.4662 7.35305 9.47804 8.49279 7.79356C9.22796 6.70664 10.164 5.77014 11.2505 5.03439C12.3558 4.28977 13.5957 3.76768 14.9007 3.49731C17.5527 2.95204 20.3127 3.48219 22.574 4.9712C24.8353 6.46022 26.4128 8.78624 26.9597 11.4379C27.2347 12.7969 27.2347 14.1973 26.9597 15.5563C26.6928 16.8624 26.1705 18.1029 25.4226 19.2065C25.058 19.7475 24.6395 20.2565 24.1772 20.7173C23.2455 21.6478 22.144 22.3909 20.9324 22.9063C20.3152 23.1671 19.6739 23.3664 19.0176 23.5013C17.6591 23.7762 16.2592 23.7762 14.9007 23.5013C13.5959 23.2338 12.3566 22.712 11.2534 21.9656C10.7108 21.599 10.2045 21.1815 9.74112 20.7188L7.67904 22.7809C8.89693 24.0004 10.3435 24.9677 11.9358 25.6274C13.5281 26.287 15.2349 26.626 16.9584 26.625C18.7129 26.6243 20.4496 26.2738 22.067 25.594C24.4114 24.6021 26.4172 22.9504 27.8405 20.8398C29.3053 18.6726 30.0866 16.1159 30.0834 13.5C30.0871 11.745 29.7359 10.0073 29.0509 8.39148V8.39148Z" fill="white"/>
</svg>
